Coordinates
version=1
nRows=9
nColumns=24
inDegrees=yes

Units are S.I. units (second, meters, Newtons, ...)
Angles are in degrees.

endheader
time	pelvis_tilt	pelvis_list	pelvis_rotation	pelvis_tx	pelvis_ty	pelvis_tz	hip_flexion_r	hip_adduction_r	hip_rotation_r	knee_angle_r	ankle_angle_r	subtalar_angle_r	mtp_angle_r	hip_flexion_l	hip_adduction_l	hip_rotation_l	knee_angle_l	ankle_angle_l	subtalar_angle_l	mtp_angle_l	lumbar_extension	lumbar_bending	lumbar_rotation
      1.11733333	      4.31106376	     -5.17538641	      8.97383516	      0.52688166	      1.03564777	      0.28967217	      5.39166383	     10.80767619	     -5.14192283	    -15.47730207	      4.88072551	    -13.07461398	      4.08267011	     11.33404087	     -7.37916544	      4.72303501	    -57.75202418	     11.73101450	      5.10628641	      4.85146950	     -3.58311757	      3.17437392	     -4.84571949
      1.12150000	      4.32405695	     -5.04270393	      8.75975169	      0.53131360	      1.03653969	      0.29036978	      4.84719939	     10.75749841	     -4.94041978	    -15.02819028	      4.88101253	    -12.94461270	      4.05861388	     11.75881439	     -7.18700001	      4.46001515	    -57.10774718	     11.89894902	      4.43331527	      4.77600890	     -3.68570747	      3.00053920	     -4.57660083
      1.12566667	      4.32477435	     -4.89813508	      8.53950243	      0.53574661	      1.03738892	      0.29107414	      4.31988835	     10.68844111	     -4.73877493	    -14.59202627	      4.88988096	    -12.81543262	      4.03772907	     12.17897507	     -6.98686407	      4.17728359	    -56.41748801	     12.02589600	      3.73885175	      4.69052937	     -3.77982743	      2.80806541	     -4.31316296
      1.12983333	      4.31079264	     -4.74254153	      8.29206210	      0.54015347	      1.03818179	      0.29180321	      3.82662189	     10.59913713	     -4.52532673	    -14.19714159	      4.89494311	    -12.67603437	      4.02479434	     12.59381189	     -6.78325449	      3.85258309	    -55.68526426	     12.16930647	      3.04461548	      4.61816328	     -3.87658328	      2.61731251	     -4.10769361
      1.13400000	      4.32892934	     -4.59117723	      8.09083464	      0.54458143	      1.03899170	      0.29247349	      3.27905974	     10.51732021	     -4.33974634	    -13.75171936	      4.92542536	    -12.54810792	      4.00973324	     12.96925560	     -6.58524645	      3.56697650	    -54.90564533	     12.17441341	      2.31335118	      4.50738251	     -3.96830792	      2.40431340	     -3.80583156
      1.13816667	      4.31100988	     -4.43071014	      7.86528148	      0.54900172	      1.03971860	      0.29315686	      2.78659739	     10.41438349	     -4.13547536	    -13.34522279	      4.95046800	    -12.40863764	      3.99645481	     13.36130040	     -6.37663610	      3.25559386	    -54.08278957	     12.19718650	      1.61571796	      4.37911938	     -4.03884653	      2.19689449	     -3.53691148
      1.14233333	      4.30369387	     -4.27780719	      7.63628615	      0.55341240	      1.04040461	      0.29384674	      2.29324863	     10.31777699	     -3.94038400	    -12.95465622	      4.98572187	    -12.28003811	      3.98671899	     13.73224036	     -6.19070412	      2.91759151	    -53.22913678	     12.19905346	      0.93214461	      4.24656663	     -4.11566404	      1.99360905	     -3.30055028
      1.14650000	      4.27745985	     -4.12107079	      7.41236129	      0.55782534	      1.04103345	      0.29451473	      1.82236322	     10.21025686	     -3.73907839	    -12.56676152	      5.02067371	    -12.14799000	      3.97898734	     14.10848150	     -5.99508580	      2.58802507	    -52.33259053	     12.15756216	      0.25913815	      4.09628906	     -4.17467453	      1.78433728	     -3.05753881
      1.15066667	      4.23950233	     -3.96984729	      7.16848096	      0.56223264	      1.04158081	      0.29520670	      1.38121923	     10.10396141	     -3.52541496	    -12.21386585	      5.06717568	    -12.02620549	      3.97539261	     14.48384705	     -5.81886474	      2.21801051	    -51.40735128	     12.11781659	     -0.36088879	      3.96514277	     -4.22400563	      1.57622841	     -2.86261426
